<svg width="176" height="168" viewBox="0 0 176 168" fill="none" xmlns="http://www.w3.org/2000/svg">
<defs>
    <linearGradient id="strokeGradient" x1="100%" y1="100%" x2="0%" y2="0%">
        <stop offset="0%" stop-color="#ff3b3b" />   <stop offset="50%" stop-color="#f5d300" />   <stop offset="100%" stop-color="#00c2ff" />  </linearGradient>
</defs>

<path id="shapePath" d="M85.2555 0.399902L36.9355 15.5389C35.2565 16.0629 33.6205 17.9059 33.2995 19.6339L28.0745 47.7279C27.7525 49.4559 26.4055 51.8149 25.0805 52.9689L2.65051 72.5139C1.32651 73.6699 0.586517 76.0099 1.00652 77.7179L13.0765 126.711C13.4965 128.417 14.8885 130.799 16.1705 132.001L52.3565 165.968C53.6375 167.171 56.0445 167.681 57.7035 167.102L85.3865 157.43C87.0465 156.851 89.7645 156.844 91.4265 157.415L119.516 167.076C121.179 167.648 123.577 167.119 124.846 165.902L161.295 130.938C162.563 129.722 163.946 127.329 164.365 125.622L175.852 78.9509C176.271 77.2429 175.554 74.8759 174.257 73.6889L151.724 52.9769C150.402 51.8169 149.038 49.4569 148.693 47.7339L142.797 18.3449C142.451 16.6209 140.787 14.8079 139.099 14.3139L91.3875 0.382904C90.5535 0.139904 89.4585 0.0188904 88.3615 0.0188904C87.2365 0.0188904 86.1085 0.145902 85.2555 0.399902ZM121.294 26.8959L100.238 8.88791C98.9025 7.74591 99.1905 7.2119 100.879 7.7009L133.086 17.0419C134.773 17.5319 135.08 18.8879 133.765 20.0549L126.112 26.8519C125.446 27.4429 124.56 27.7399 123.674 27.7399C122.813 27.7399 121.952 27.4589 121.294 26.8959ZM33.5275 43.0599L37.4805 21.8259C37.8025 20.0969 39.4475 18.2829 41.1345 17.7929L75.9325 7.7009C77.6195 7.2119 77.9085 7.74591 76.5735 8.88791L36.0405 43.5549C34.7055 44.6979 33.4615 45.7609 33.2785 45.9179C33.2685 45.9269 33.2595 45.9309 33.2505 45.9309C33.1075 45.9309 33.2245 44.6929 33.5275 43.0599ZM51.6205 89.3049L45.2815 87.1969C43.6145 86.6419 42.9685 84.9429 43.8475 83.4199L85.7905 10.7719C86.6705 9.24988 87.6785 9.41289 88.0315 11.1349L95.9935 49.8959C96.3475 51.6189 95.5615 53.9819 94.2465 55.1489L57.0425 88.1919C56.0925 89.0349 54.5525 89.5309 53.1425 89.5309C52.6025 89.5309 52.0825 89.4589 51.6205 89.3049ZM110.894 36.1779L101.486 19.8819C100.606 18.3589 99.2215 15.9619 98.4095 14.5559C97.5985 13.1489 98.0265 12.9329 99.3625 14.0749L117.889 29.9209C119.225 31.0629 119.243 32.9539 117.928 34.1209L114.882 36.8239C114.339 37.3069 113.713 37.5399 113.104 37.5399C112.24 37.5399 111.41 37.0709 110.894 36.1779ZM34.8465 83.7279L29.5135 81.9559C27.8475 81.3999 26.7445 79.5329 27.0665 77.8049L31.0475 56.4029C31.3685 54.6749 32.7265 52.3259 34.0615 51.1829L77.4485 14.0749C78.7845 12.9329 79.1585 13.2439 78.2795 14.7649L52.1375 60.0399C51.2595 61.5619 49.8195 64.0529 48.9425 65.5749L39.4765 81.9679C38.7885 83.1609 37.3605 83.9049 35.9725 83.9049C35.5885 83.9049 35.2075 83.8479 34.8465 83.7279ZM99.8875 46.4379L94.0585 18.0559C93.7045 16.3329 94.1335 16.1699 95.0135 17.6929L101.75 29.3599C102.63 30.8819 104.068 33.3729 104.946 34.8959L107.452 39.2359C108.33 40.7579 108.335 42.6379 107.462 43.4149C106.589 44.1909 104.799 45.7799 103.484 46.9479L102.921 47.4469C102.428 47.8849 101.927 48.0949 101.476 48.0949C100.725 48.0949 100.109 47.5139 99.8875 46.4379ZM141.437 44.1239L129.611 34.0109C128.275 32.8689 128.257 30.9789 129.571 29.8119L132.316 27.3739C133.63 26.2079 135.722 24.3499 136.964 23.2469C138.206 22.1439 139.485 22.6559 139.806 24.3849L143.281 43.0599C143.484 44.1519 143.227 44.7449 142.673 44.7449C142.351 44.7449 141.928 44.5439 141.437 44.1239ZM155.192 112.904L116.394 45.7009C115.516 44.1779 115.871 41.9779 117.186 40.8099L121.387 37.0789C122.701 35.9119 124.799 35.8299 126.048 36.8989C127.299 37.9669 129.414 39.7749 130.749 40.9189L142.75 51.1799C144.085 52.3229 145.442 54.6719 145.763 56.3999L154.896 105.49C155.217 107.218 155.743 110.047 156.064 111.775L156.206 112.529C156.38 113.465 156.326 113.944 156.1 113.944C155.909 113.944 155.595 113.602 155.192 112.904ZM153.458 123.167L115.91 110.682C114.241 110.128 112.587 108.265 112.234 106.543L107.871 85.3029C107.517 83.5809 106.939 80.7639 106.585 79.0419L102.222 57.8009C101.868 56.0789 102.654 53.7149 103.969 52.5479L106.383 50.4029C107.698 49.2349 109.353 47.7659 110.063 47.1359C110.772 46.5069 112.071 47.2359 112.95 48.7589L145.331 104.846C146.209 106.368 147.648 108.859 148.527 110.381L154.893 121.407C155.581 122.599 155.334 123.344 154.393 123.344C154.133 123.344 153.819 123.287 153.458 123.167ZM161.134 114.363L151.22 61.0679C150.897 59.3399 151.728 58.8599 153.064 60.0029L169.477 74.0399C170.813 75.1829 171.562 77.5139 171.142 79.2219L162.481 114.402C162.273 115.248 162.019 115.671 161.777 115.671C161.531 115.671 161.296 115.234 161.134 114.363ZM19.1285 78.5019L9.91252 75.4359C8.24452 74.8809 7.97252 73.4919 9.30852 72.3499L23.7485 60.0029C25.0845 58.8609 25.9145 59.3409 25.5925 61.0689L22.7465 76.3679C22.4855 77.7639 21.3725 78.6589 20.0765 78.6589C19.7675 78.6589 19.4495 78.6079 19.1285 78.5019ZM104.902 107.022L62.6265 92.9649C60.9605 92.4089 60.6715 91.0009 61.9845 89.8339L95.2945 60.2509C96.6085 59.0849 97.9735 59.5379 98.3275 61.2599L107.293 104.9C107.578 106.289 106.932 107.179 105.795 107.179C105.523 107.179 105.224 107.129 104.902 107.022ZM14.3275 114.402L6.31152 81.8429C5.89052 80.1359 6.91252 79.1939 8.58052 79.7479L18.2945 82.9769C19.9635 83.5319 21.2945 84.1679 21.2525 84.3899C21.2105 84.6139 20.9125 86.2089 20.5915 87.9379L15.6765 114.363C15.5145 115.234 15.2805 115.671 15.0335 115.671C14.7905 115.671 14.5365 115.248 14.3275 114.402ZM20.6075 112.529L25.0645 88.5639C25.3855 86.8359 27.0145 85.8749 28.6815 86.4299L32.5465 87.7149C34.2135 88.2689 34.8595 89.9689 33.9805 91.4909L21.6205 112.903C21.2175 113.601 20.9035 113.944 20.7125 113.944C20.4875 113.944 20.4335 113.465 20.6075 112.529ZM25.9115 114.488L38.3505 92.9429C39.2295 91.4199 41.3135 90.6289 42.9795 91.1839L47.7255 92.7619C49.3925 93.3169 49.6815 94.7269 48.3685 95.8929L26.7035 115.134C26.1595 115.617 25.7795 115.851 25.5835 115.851C25.3055 115.851 25.3955 115.382 25.9115 114.488ZM23.7265 123.81L52.9805 97.8289C54.2945 96.6619 56.7385 96.1519 58.4105 96.6949L105.943 112.142C107.615 112.685 109.272 114.538 109.626 116.261L110.97 122.801C111.324 124.523 110.175 125.933 108.417 125.933H24.5325C22.7755 125.933 22.4125 124.978 23.7265 123.81ZM115.573 122.801L114.568 117.905C114.215 116.184 115.291 115.229 116.958 115.783L144.449 124.925C146.117 125.478 146.043 125.933 144.285 125.933H119.412C117.654 125.933 115.927 124.523 115.573 122.801ZM118.84 138.704C118.614 137.61 118.142 135.306 117.787 133.583L117.785 133.574C117.43 131.851 118.579 130.442 120.337 130.442H145.065C146.823 130.442 146.906 130.921 145.248 131.507L137.401 134.278C135.743 134.864 133.032 135.823 131.374 136.408L122.262 139.63C121.753 139.809 121.254 139.895 120.801 139.895C119.782 139.895 118.995 139.462 118.84 138.704ZM85.3905 150.527L31.5645 131.507C29.9075 130.921 29.9895 130.442 31.7465 130.442H109.344C111.101 130.442 112.829 131.851 113.182 133.574L114.312 139.079C114.665 140.801 113.599 142.689 111.941 143.275L91.4175 150.527C90.5885 150.82 89.4965 150.966 88.4035 150.966C87.3115 150.966 86.2185 150.82 85.3905 150.527ZM122.868 158.312L120.808 148.285C120.454 146.562 121.521 144.675 123.178 144.089L149.302 134.857C150.96 134.271 151.278 134.788 150.01 136.006L125.817 159.229C125.325 159.702 124.823 159.929 124.374 159.929C123.665 159.929 123.084 159.366 122.868 158.312ZM52.9395 161.096L26.8025 136.007C25.5345 134.789 25.8535 134.272 27.5105 134.859L77.4565 152.508C79.1125 153.094 80.7325 153.666 81.0535 153.779C81.3745 153.891 80.2805 154.463 78.6235 155.048L58.2585 162.246C57.7945 162.409 57.2725 162.487 56.7335 162.487C55.3485 162.487 53.8515 161.974 52.9395 161.096ZM116.1 161.377L98.1875 155.048C96.5295 154.462 95.8965 153.729 96.7795 153.417C97.6635 153.104 99.7425 152.37 101.401 151.784L112.858 147.734C114.516 147.15 116.162 148.078 116.516 149.801L118.47 159.311C118.752 160.683 118.132 161.553 117.03 161.553C116.749 161.553 116.437 161.496 116.1 161.377Z" />

<use href="#shapePath" fill="none" stroke="url(#strokeGradient)" stroke-width="2"/>

<use href="#shapePath" fill="none" stroke="#ff3b3b" stroke-width="2.5" stroke-linecap="round" stroke-dasharray="40 2000">
    <animate attributeName="stroke-dashoffset" from="0" to="-2040" dur="4s" begin="0s" repeatCount="indefinite"/>
</use>
<use href="#shapePath" fill="none" stroke="#f5d300" stroke-width="2.5" stroke-linecap="round" stroke-dasharray="40 2000">
    <animate attributeName="stroke-dashoffset" from="0" to="-2040" dur="4s" begin="1.3s" repeatCount="indefinite"/>
</use>
<use href="#shapePath" fill="none" stroke="#00c2ff" stroke-width="2.5" stroke-linecap="round" stroke-dasharray="40 2000">
    <animate attributeName="stroke-dashoffset" from="0" to="-2040" dur="4s" begin="2.6s" repeatCount="indefinite"/>
</use>
</svg>