<svg viewBox="0 0 595.28 74.08632" xmlns="http://www.w3.org/2000/svg" data-name="Layer 1" id="Layer_1" style="max-height: 500px" width="595.28" height="74.08632">
  <defs>
    <style>
      .cls-1 {
        font-size: 12px;
      }

      .cls-1, .cls-2, .cls-3 {
        fill: #fff;
      }

      .cls-4 {
        font-family: Montserrat-Arabic-Regular, Montserrat-Arabic;
        font-size: 8.52px;
      }

      .cls-4, .cls-5 {
        fill: #fff;
      }

      .cls-6 {
        font-family: Tajawal-Regular, Tajawal;
      }

      .cls-3 {
        font-family: Tajawal-Medium, Tajawal;
        font-size: 13px;
        font-weight: 500;
      }

      .cls-7 {
        font-family: Tajawal-Bold, Tajawal;
        font-weight: 700;
      }
    </style>
  </defs>
  <g>
    <text transform="translate(102.74 815.33)" class="cls-4"><tspan y="0" x="0">Mob: +974 31000003</tspan></text>
    <text transform="translate(200.26 815.13)" class="cls-4"><tspan xml:space="preserve" y="0" x="0">Mail: Info@ajnee.com    The Gate Mall, 12th floor, Tower 2    P.O. Box :55994 Doha - Qatar</tspan></text>
  </g>
  <g>
    <text transform="translate(32.73 40.32)" class="cls-1"><tspan y="0" x="0" class="cls-7">ajnee</tspan><tspan xml:space="preserve" y="0" x="27.23" class="cls-6"> Institute for Training and Innovation</tspan></text>
    <text transform="translate(359.89 41.1) scale(1.11 1)" class="cls-3"><tspan y="0" x="0">معـهـد أجني للتدريــب والإبتـكـــار</tspan></text>
    <g>
      <path d="M298.55,50.92c0,.84-.69,1.54-1.52,1.54-.84,0-1.53-.7-1.52-1.54,0-.85.69-1.53,1.53-1.53.84,0,1.52.68,1.52,1.54Z" class="cls-2"/>
      <path d="M306.28,30.06c-.83.03-1.56-.71-1.56-1.54,0-.81.71-1.52,1.53-1.51,1,.01,1.55.8,1.54,1.54-.01.85-.65,1.5-1.51,1.5Z" class="cls-2"/>
      <path d="M292.16,27.23c-.82.04-1.55-.65-1.55-1.5,0-.85.7-1.54,1.56-1.53.83,0,1.51.68,1.51,1.51,0,.85-.65,1.52-1.52,1.52Z" class="cls-2"/>
      <path d="M287.77,30.05c-.86,0-1.53-.68-1.52-1.53,0-.84.69-1.53,1.52-1.51.99.02,1.54.79,1.53,1.52-.01.86-.68,1.52-1.53,1.52Z" class="cls-2"/>
      <path d="M285.64,37.72c0,.85-.66,1.51-1.5,1.51-.87,0-1.54-.68-1.54-1.54,0-.83.69-1.5,1.52-1.51.84,0,1.52.68,1.52,1.54Z" class="cls-2"/>
      <path d="M293.5,49.72c0,.81-.73,1.55-1.54,1.55-.81,0-1.52-.72-1.51-1.56,0-.78.6-1.5,1.54-1.51.83-.01,1.51.69,1.51,1.52Z" class="cls-2"/>
      <path d="M311.59,37.71c0,.86-.68,1.53-1.52,1.53-.84,0-1.52-.7-1.51-1.54,0-.83.71-1.53,1.54-1.52.81,0,1.49.71,1.49,1.54Z" class="cls-2"/>
      <path d="M303.59,49.68c0,.85-.67,1.55-1.5,1.56-.82,0-1.54-.7-1.55-1.52-.01-.84.7-1.54,1.56-1.53.84,0,1.49.66,1.49,1.49Z" class="cls-2"/>
      <path d="M306.14,48.42c-.85,0-1.53-.67-1.54-1.51,0-.85.66-1.51,1.52-1.52.84,0,1.51.65,1.52,1.49,0,.85-.66,1.54-1.51,1.54Z" class="cls-2"/>
      <path d="M298.55,24.97c0,.84-.68,1.51-1.52,1.51-.84,0-1.52-.68-1.53-1.51,0-.85.71-1.55,1.56-1.54.82,0,1.49.7,1.49,1.54Z" class="cls-2"/>
      <path d="M283.41,42.68c0-.84.7-1.52,1.55-1.52.83,0,1.52.7,1.5,1.53-.01.83-.72,1.53-1.55,1.52-.82,0-1.51-.7-1.5-1.53Z" class="cls-2"/>
      <path d="M310.44,42.7c0,.83-.68,1.51-1.51,1.51-.84,0-1.55-.71-1.54-1.55,0-.83.69-1.5,1.53-1.5.84,0,1.53.7,1.53,1.53Z" class="cls-2"/>
      <path d="M287.91,48.42c-.84,0-1.51-.67-1.52-1.5,0-.87.67-1.54,1.54-1.53.86,0,1.5.67,1.49,1.54,0,.84-.68,1.5-1.52,1.49Z" class="cls-2"/>
      <path d="M301.89,27.23c-.82,0-1.49-.67-1.5-1.49,0-.84.7-1.53,1.56-1.54.84,0,1.48.66,1.49,1.52,0,.8-.68,1.54-1.54,1.51Z" class="cls-2"/>
      <path d="M283.41,32.76c0-.84.69-1.51,1.52-1.5.84,0,1.55.71,1.53,1.54-.01.82-.69,1.48-1.51,1.49-.86,0-1.54-.67-1.54-1.52Z" class="cls-2"/>
      <path d="M310.44,32.77c0,.84-.67,1.51-1.51,1.51-.84,0-1.54-.7-1.54-1.53,0-.8.72-1.5,1.55-1.5.84,0,1.51.68,1.51,1.52Z" class="cls-2"/>
      <path d="M311.28,29.32c-.51,0-.94-.4-.94-.89,0-.49.46-.96.96-.97.5,0,.94.44.93.94,0,.51-.43.92-.95.92Z" class="cls-2"/>
      <path d="M301.61,21.5c0,.52-.45.97-.95.95-.48-.01-.9-.45-.91-.95,0-.5.43-.95.93-.95.5,0,.93.43.93.94Z" class="cls-2"/>
      <path d="M280.36,34.08c0-.5.43-.93.95-.91.51.02.91.41.91.92,0,.52-.42.93-.94.94-.52,0-.93-.42-.93-.94Z" class="cls-2"/>
      <path d="M300.57,52.77c.5,0,.92.42.92.92,0,.51-.42.93-.94.93-.52,0-.93-.41-.92-.94,0-.51.43-.92.95-.92Z" class="cls-2"/>
      <path d="M311.86,46.74c0,.5-.44.93-.92.93-.51,0-.95-.46-.95-.97,0-.52.43-.93.95-.92.52.01.92.43.91.96Z" class="cls-2"/>
      <path d="M283.65,47.43c-.53,0-.96-.43-.95-.93,0-.51.44-.92.96-.92.51,0,.94.44.93.95,0,.5-.44.91-.94.9Z" class="cls-2"/>
      <path d="M313.68,39.91c.51,0,.9.41.9.93,0,.51-.42.93-.91.93-.51,0-.96-.43-.95-.92,0-.52.43-.93.97-.93Z" class="cls-2"/>
      <path d="M289.15,23.58c0,.54-.41.95-.95.94-.5,0-.9-.39-.91-.89,0-.53.42-.96.94-.96.52,0,.92.4.92.91Z" class="cls-2"/>
      <path d="M294.42,20.3c.5,0,.89.42.89.94,0,.52-.43.93-.95.91-.51-.01-.92-.43-.91-.92,0-.52.44-.93.97-.93Z" class="cls-2"/>
      <path d="M287.98,50.16c.52,0,.93.4.93.9,0,.52-.45.97-.96.96-.48,0-.91-.46-.91-.95,0-.5.43-.91.93-.91Z" class="cls-2"/>
      <path d="M312.59,34.32c-.04-.53.46-.94.93-.93.5.01.9.42.9.94,0,.52-.42.94-.94.93-.51,0-.89-.4-.89-.93Z" class="cls-2"/>
      <path d="M293.97,54.77c-.52,0-.93-.39-.93-.9,0-.51.42-.93.94-.93.5,0,.94.42.94.9,0,.5-.43.92-.95.93Z" class="cls-2"/>
      <path d="M306.58,24.68c-.53,0-.93-.41-.93-.93,0-.52.43-.93.95-.92.5,0,.9.43.89.94,0,.51-.41.92-.91.92Z" class="cls-2"/>
      <path d="M282.68,28.13c0-.51.41-.92.94-.92.53,0,.93.4.92.93,0,.5-.42.9-.93.9-.51,0-.93-.41-.93-.91Z" class="cls-2"/>
      <path d="M306.34,52.16c-.52,0-.92-.41-.93-.93,0-.5.43-.92.95-.92.5,0,.9.42.9.93,0,.51-.41.92-.91.92Z" class="cls-2"/>
      <path d="M281.03,39.57c.51,0,.91.41.92.92,0,.52-.39.93-.89.94-.52,0-.94-.43-.93-.97,0-.5.41-.89.91-.89Z" class="cls-2"/>
      <path d="M315.86,46.21c-.4,0-.7-.29-.69-.67,0-.36.31-.68.66-.69.37,0,.69.3.7.67,0,.4-.28.68-.67.68Z" class="cls-2"/>
      <path d="M288.97,56.35c-.38-.01-.66-.29-.66-.67,0-.4.32-.7.7-.69.37.01.66.33.66.71,0,.37-.32.66-.71.65Z" class="cls-2"/>
      <path d="M306.43,19.15c0,.38-.31.66-.7.66-.38,0-.66-.29-.66-.67,0-.37.33-.69.69-.69.37,0,.67.32.67.7Z" class="cls-2"/>
      <path d="M284.38,22.3c0,.38-.29.69-.67.7-.37.01-.68-.29-.69-.68,0-.37.29-.67.65-.68.38-.01.7.28.7.66Z" class="cls-2"/>
      <path d="M282.64,50.05c.39,0,.68.29.67.68,0,.37-.3.67-.66.68-.36,0-.7-.33-.7-.68,0-.37.31-.68.68-.68Z" class="cls-2"/>
      <path d="M291.07,18.25c0,.37-.31.66-.7.66-.36,0-.65-.31-.66-.68,0-.36.32-.68.69-.68.36,0,.67.32.67.7Z" class="cls-2"/>
      <path d="M311.7,51.81c0,.38-.31.66-.71.64-.36-.01-.65-.32-.65-.68,0-.36.33-.68.7-.67.37.01.66.33.66.71Z" class="cls-2"/>
      <path d="M316.78,37.81c0-.38.3-.67.69-.67.37,0,.68.32.67.69,0,.36-.31.66-.67.66-.37,0-.68-.31-.69-.68Z" class="cls-2"/>
      <path d="M316.43,30.85c-.37,0-.67-.3-.67-.68,0-.36.32-.67.69-.67.35,0,.66.31.67.67,0,.36-.31.68-.68.69Z" class="cls-2"/>
      <path d="M278.12,44.11c0-.37.31-.66.67-.65.35,0,.68.35.68.7,0,.34-.34.65-.69.65-.37,0-.67-.32-.66-.7Z" class="cls-2"/>
      <path d="M312.13,24.07c-.38,0-.67-.3-.68-.69,0-.37.29-.67.66-.66.36,0,.69.33.7.69,0,.33-.32.65-.68.66Z" class="cls-2"/>
      <path d="M279.34,29.44c-.36,0-.68-.33-.67-.7,0-.35.3-.65.66-.66.36,0,.69.32.68.69,0,.37-.3.67-.67.67Z" class="cls-2"/>
      <path d="M277.97,36.31c0,.36-.32.68-.66.67-.37,0-.68-.33-.67-.7.01-.37.32-.66.68-.65.37,0,.66.31.65.68Z" class="cls-2"/>
      <path d="M303.68,55.89c0-.38.28-.67.65-.68.37,0,.71.31.71.67,0,.34-.33.66-.69.66-.37,0-.67-.28-.67-.66Z" class="cls-2"/>
      <path d="M299,17.05c0,.39-.3.7-.66.7-.37,0-.68-.32-.67-.69.01-.37.31-.66.68-.65.38,0,.65.28.65.64Z" class="cls-2"/>
      <path d="M296.84,57.88c-.38,0-.67-.29-.67-.66,0-.36.33-.67.7-.66.36,0,.65.29.65.64,0,.37-.31.68-.69.68Z" class="cls-2"/>
      <path d="M321.05,33.1c0,.27-.23.51-.5.52-.26,0-.51-.22-.52-.47,0-.29.22-.52.51-.53.25,0,.49.23.5.48Z" class="cls-2"/>
      <path d="M311.07,18.39c0,.31-.16.49-.44.5-.31.01-.51-.17-.52-.47,0-.31.2-.53.5-.53.28,0,.46.2.47.49Z" class="cls-2"/>
      <path d="M310.05,57.14c-.31,0-.5-.2-.5-.49,0-.3.21-.49.51-.48.27,0,.5.24.49.51-.01.26-.23.47-.5.46Z" class="cls-2"/>
      <path d="M317.29,50.53c0,.27-.25.5-.52.49-.25-.01-.49-.25-.48-.5,0-.29.25-.52.53-.51.24.01.47.26.47.52Z" class="cls-2"/>
      <path d="M274.22,32.2c0-.27.2-.49.47-.5.28-.01.51.2.51.48,0,.29-.2.5-.49.51-.29.01-.49-.18-.49-.5Z" class="cls-2"/>
      <path d="M301.59,59.51c.32,0,.53.21.52.51,0,.25-.22.45-.48.45-.3,0-.51-.21-.5-.52,0-.29.18-.44.47-.44Z" class="cls-2"/>
      <path d="M284.86,17.08c.27,0,.48.21.48.48,0,.28-.21.49-.5.5-.27,0-.47-.18-.48-.45,0-.32.19-.52.5-.53Z" class="cls-2"/>
      <path d="M275.29,41.45c0,.26-.24.5-.51.5-.26,0-.49-.23-.48-.49,0-.26.25-.5.52-.5.26,0,.48.22.48.49Z" class="cls-2"/>
      <path d="M316.51,24.51c0-.31.2-.5.49-.5.25,0,.47.24.47.5,0,.26-.22.49-.47.5-.3,0-.49-.19-.49-.5Z" class="cls-2"/>
      <path d="M279.05,24.05c0,.26-.23.5-.47.5-.28,0-.51-.22-.51-.49,0-.27.24-.5.51-.5.26,0,.48.23.48.49Z" class="cls-2"/>
      <path d="M302.56,15.04c-.27,0-.45-.21-.45-.51,0-.26.23-.48.49-.48.28,0,.51.24.49.51-.01.27-.26.49-.53.48Z" class="cls-2"/>
      <path d="M277.94,49.23c.28.02.48.26.45.54-.03.26-.27.47-.53.44-.29-.03-.48-.26-.45-.54.02-.26.26-.46.53-.44Z" class="cls-2"/>
      <path d="M284.14,57.09c-.32,0-.5-.18-.49-.49,0-.28.21-.47.5-.47.27,0,.47.21.46.5,0,.32-.15.47-.47.46Z" class="cls-2"/>
      <path d="M293.78,14.26c0,.27-.21.47-.49.48-.26,0-.48-.19-.48-.45,0-.25.25-.54.48-.54.25,0,.5.25.5.52Z" class="cls-2"/>
      <path d="M320.17,41.54c.28,0,.5.22.49.51,0,.25-.22.47-.47.47-.25,0-.49-.23-.49-.49,0-.29.19-.49.47-.49Z" class="cls-2"/>
      <path d="M293.28,60c0,.24-.24.47-.5.47-.25,0-.47-.21-.48-.46,0-.29.18-.49.46-.49.27,0,.52.23.52.49Z" class="cls-2"/>
    </g>
  </g>
  <rect ry="7.77" rx="7.77" height="47.44" width="47.44" y="771.2" x="37.55" class="cls-5"/>
  <g>
    <path d="M76.42,790.68c0-1.21,0-2.42,0-3.64h1.21v1.21h1.21v1.21h-1.21c0,.4,0,.81,0,1.21-.4,0-.81,0-1.21,0Z" class="cls-2"/>
    <path d="M58.24,789.46c.4,0,.81,0,1.21,0,0,.4,0,.81,0,1.21-.4,0-.81,0-1.21,0,0-.4,0-.81,0-1.21Z" class="cls-2"/>
    <path d="M75.21,790.68c-.4,0-.81,0-1.21,0v-1.21h1.21v1.21c.4,0,.81,0,1.21,0,0,.4,0,.81,0,1.21h1.21c0,.4,0,.81,0,1.21h-2.42v1.21h1.21v1.21h-2.42c0,.4,0,.81,0,1.21-.4,0-.81,0-1.21,0v-1.21c-.4,0-.81,0-1.21,0,0-.4,0-.81,0-1.21h1.21v-1.21h-2.42c0-.4,0-.81,0-1.21.4,0,.81,0,1.21,0v-1.21h1.21v1.21h2.42c0-.4,0-.81,0-1.21Z" class="cls-2"/>
    <path d="M59.45,790.68c.81,0,1.62,0,2.42,0v2.42c-.4,0-.81,0-1.21,0,0-.4,0-.81,0-1.21h-1.21c0-.4,0-.81,0-1.21Z" class="cls-2"/>
    <path d="M66.73,790.68c0,.4,0,.81,0,1.21-.4,0-.81,0-1.21,0v-1.21c.4,0,.81,0,1.21,0Z" class="cls-2"/>
    <path d="M69.15,790.68c.4,0,.81,0,1.21,0,0,.4,0,.81,0,1.21h-1.21c0-.4,0-.81,0-1.21Z" class="cls-2"/>
    <path d="M77.63,790.68c.4,0,.81,0,1.21,0v1.21c-.4,0-.81,0-1.21,0,0-.4,0-.81,0-1.21Z" class="cls-2"/>
    <path d="M66.73,791.89c.4,0,.81,0,1.21,0,0,.4,0,.81,0,1.21-.4,0-.81,0-1.21,0,0-.4,0-.81,0-1.21Z" class="cls-2"/>
    <path d="M54.61,793.1c0,.4,0,.81,0,1.21-.81,0-1.62,0-2.42,0,0-.4,0-.81,0-1.21.81,0,1.62,0,2.42,0Z" class="cls-2"/>
    <path d="M60.67,793.1c0,.4,0,.81,0,1.21-.4,0-.81,0-1.21,0v-1.21c.4,0,.81,0,1.21,0Z" class="cls-2"/>
    <path d="M60.67,794.31c.81,0,1.62,0,2.42,0v-1.21h1.21v1.21c.4,0,.81,0,1.21,0,0,.4,0,.81,0,1.21-.4,0-.81,0-1.21,0v2.42h-3.64v1.21h1.21v1.21c-.81,0-1.62,0-2.42,0,0,.4,0,.81,0,1.21h-1.21v-1.21c.4,0,.81,0,1.21,0v-1.21c-.81,0-1.62,0-2.42,0,0-.4,0-.81,0-1.21.81,0,1.62,0,2.42,0v-1.21h-2.42c0,.4,0,.81,0,1.21-.4,0-.81,0-1.21,0,0-.81,0-1.62,0-2.42,1.61,0,3.23,0,4.85,0,0,.4,0,.81,0,1.21h2.42v-1.21c-.81,0-1.62,0-2.42,0,0-.4,0-.81,0-1.21Z" class="cls-2"/>
    <path d="M66.73,793.1c0,.4,0,.81,0,1.21h-1.21c0-.4,0-.81,0-1.21.4,0,.81,0,1.21,0Z" class="cls-2"/>
    <path d="M67.94,793.1c.4,0,.81,0,1.21,0,0,.4,0,.81,0,1.21-.4,0-.81,0-1.21,0,0-.4,0-.81,0-1.21Z" class="cls-2"/>
    <path d="M54.61,794.31c.4,0,.81,0,1.21,0,0,.4,0,.81,0,1.21-.4,0-.81,0-1.21,0,0-.4,0-.81,0-1.21Z" class="cls-2"/>
    <path d="M66.73,811.28c0,.4,0,.81,0,1.21h-2.42c0-.4,0-.81,0-1.21.81,0,1.62,0,2.42,0Z" class="cls-2"/>
    <path d="M74,796.74c.81,0,1.62,0,2.42,0,0,.4,0,.81,0,1.21.81,0,1.62,0,2.42,0v1.21h-2.42c0-.4,0-.81,0-1.21-.4,0-.81,0-1.21,0v1.21h-1.21c0-.81,0-1.62,0-2.42Z" class="cls-2"/>
    <path d="M55.82,797.95c0,.4,0,.81,0,1.21-.4,0-.81,0-1.21,0,0-.4,0-.81,0-1.21.4,0,.81,0,1.21,0Z" class="cls-2"/>
    <path d="M44.91,799.16c0,.81,0,1.62,0,2.42-.12,0-1.21.06-1.21,0v-2.42h1.21Z" class="cls-2"/>
    <path d="M69.15,794.31c.4,0,.81,0,1.21,0v1.21c.4,0,.81,0,1.21,0,0,.81,0,1.62,0,2.42h1.21v1.21h1.21c0,2.02,0,4.04,0,6.06h1.21v1.21h-1.21v1.21h-1.21v1.21h-1.21v-1.21h-2.42c0,.4,0,.81,0,1.21-.81,0-1.62,0-2.42,0,0,.4,0,.81,0,1.21-.81,0-1.62,0-2.42,0,0-1.21,0-2.42,0-3.64h1.21v1.21h1.21v-1.21h1.21v-3.64h-1.21v-1.21h-2.42v3.64c-.4,0-.81,0-1.21,0,0-.4,0-.81,0-1.21h-1.21v-1.21h-1.21v-1.21h1.21c.06,0,0-1.09,0-1.21.81,0,1.62,0,2.42,0v-1.21h1.21v1.21h1.21v-1.21h-1.21c0-.12-.06-1.21,0-1.21h1.21v-1.21h-1.21c0-.4,0-.81,0-1.21.81,0,1.62,0,2.42,0v2.42c.4,0,.81,0,1.21,0,0,.4,0,.81,0,1.21-.4,0-.81,0-1.21,0v2.42h2.42c0-.4,0-.81,0-1.21.4,0,.81,0,1.21,0v-1.21c-.4,0-.81,0-1.21,0,0-.4,0-.81,0-1.21-.4,0-.81,0-1.21,0,0-1.21,0-2.42,0-3.64ZM72.78,802.79h-3.64v3.64h3.64v-3.64Z" class="cls-2"/>
    <path d="M57.03,799.16c0,.4,0,.81,0,1.21-.4,0-.81,0-1.21,0,0-.4,0-.81,0-1.21.4,0,.81,0,1.21,0Z" class="cls-2"/>
    <path d="M70.36,799.16c0,.4,0,.81,0,1.21h-1.21c0-.4,0-.81,0-1.21.4,0,.81,0,1.21,0Z" class="cls-2"/>
    <path d="M77.63,806.43c-.4,0-.81,0-1.21,0v-2.42h-1.21v-3.64h3.64v3.64h-1.21c0,.81,0,1.62,0,2.42.4,0,.81,0,1.21,0v2.42h-2.42v1.21h2.42v1.21h-1.21v1.21h-2.42v-1.21c-.81,0-1.62,0-2.42,0,0,.4,0,.81,0,1.21h-3.64c0-.4,0-.81,0-1.21-.81,0-1.62,0-2.42,0,0-.4,0-.81,0-1.21.81,0,1.62,0,2.42,0,0,.4,0,.81,0,1.21,1.21,0,2.42,0,3.64,0,0-.4,0-.81,0-1.21h2.42v-2.42h2.42c0-.4,0-.81,0-1.21ZM77.63,801.58h-1.21v1.21h1.21v-1.21Z" class="cls-2"/>
    <path d="M54.61,802.79v1.21h-1.21v-1.21c.4,0,.81,0,1.21,0Z" class="cls-2"/>
    <path d="M54.61,810.07c-.4,0-.81,0-1.21,0v-1.21h1.21c0,.4,0,.81,0,1.21.4,0,.81,0,1.21,0,0,.4,0,.81,0,1.21h1.21c0-.4,0-.81,0-1.21.4,0,.81,0,1.21,0v1.21h2.42c0-.4,0-.81,0-1.21.4,0,.81,0,1.21,0v1.21c.4,0,.81,0,1.21,0,0,.4,0,.81,0,1.21h-8.48c0-.81,0-1.62,0-2.42Z" class="cls-2"/>
    <path d="M59.45,805.22c0-.4,0-.81,0-1.21h1.21v1.21c-.4,0-.81,0-1.21,0,0,.4,0,.81,0,1.21-.4,0-.81,0-1.21,0,0-.4,0-.81,0-1.21.4,0,.81,0,1.21,0Z" class="cls-2"/>
    <path d="M57.03,808.85c0-.4,0-.81,0-1.21h-3.64v-2.42h1.21v1.21c1.21,0,2.42,0,3.64,0,0,.4,0,.81,0,1.21.4,0,.81,0,1.21,0,0,.4,0,.81,0,1.21-.81,0-1.62,0-2.42,0Z" class="cls-2"/>
    <path d="M63.09,805.22v1.21c-.4,0-.81,0-1.21,0,0-.4,0-.81,0-1.21.4,0,.81,0,1.21,0Z" class="cls-2"/>
    <path d="M61.88,806.43c0,.4,0,.81,0,1.21.4,0,.81,0,1.21,0v1.21h-1.21c0-.4,0-.81,0-1.21-.81,0-1.62,0-2.42,0,0-.4,0-.81,0-1.21.81,0,1.62,0,2.42,0Z" class="cls-2"/>
    <path d="M57.03,808.85c0,.4,0,.81,0,1.21-.4,0-.81,0-1.21,0v-1.21c.4,0,.81,0,1.21,0Z" class="cls-2"/>
    <path d="M60.67,778.56c-.4,0-.81,0-1.21,0v-1.21h1.21c0,.4,0,.81,0,1.21.4,0,.81,0,1.21,0v1.21h2.42v-1.21h-1.21v-1.21h2.42v2.42h2.42v-2.42h1.21v3.64h-1.21v1.21c.4,0,.81,0,1.21,0v1.21h-1.21v-1.21c-.4,0-.81,0-1.21,0v1.21h-4.85v3.64h1.21c0,.4,0,.81,0,1.21-1.21,0-2.43,0-3.64,0,0-.4,0-.81,0-1.21.4,0,.81,0,1.21,0v-2.42h-1.21c0,.81,0,1.62,0,2.42-.4,0-.81,0-1.21,0,0,.81,0,1.62,0,2.42-.81,0-1.62,0-2.42,0v-1.21h1.21c0-.81,0-1.62,0-2.42h1.21v-2.42h-1.21c0-.4,0-.81,0-1.21,3.23.01,6.46-.02,9.69,0,0-.12.06-1.21,0-1.21h-6.06c0-.81,0-1.62,0-2.42Z" class="cls-2"/>
    <path d="M59.45,808.85c.4,0,.81,0,1.21,0v1.21c-.4,0-.81,0-1.21,0,0-.4,0-.81,0-1.21Z" class="cls-2"/>
    <path d="M57.03,783.41c0,.81,0,1.62,0,2.42-.12,0-1.21.06-1.21,0v-2.42h1.21Z" class="cls-2"/>
    <path d="M69.15,808.85c.4,0,.81,0,1.21,0v1.21c-.4,0-.81,0-1.21,0,0-.4,0-.81,0-1.21Z" class="cls-2"/>
    <path d="M66.73,785.83c-.4,0-.81,0-1.21,0v-1.21h1.21c0,.4,0,.81,0,1.21.4,0,.81,0,1.21,0,0-.4,0-.81,0-1.21h1.21v1.21c-.4,0-.81,0-1.21,0,0,.4,0,.81,0,1.21-.4,0-.81,0-1.21,0,0,.4,0,.81,0,1.21.81,0,1.62,0,2.42,0,0-.4,0-.81,0-1.21h1.21c0,.4,0,.81,0,1.21.4,0,.81,0,1.21,0v1.21h-1.21c0-.4,0-.81,0-1.21-.4,0-.81,0-1.21,0,0,.81,0,1.62,0,2.42-.81,0-1.62,0-2.42,0,0-.4,0-.81,0-1.21h-2.42v1.21h-1.21c0-.81,0-1.62,0-2.42.4,0,.81,0,1.21,0v-1.21c.81,0,1.62,0,2.42,0,0-.4,0-.81,0-1.21Z" class="cls-2"/>
    <path d="M64.3,810.07c0,.4,0,.81,0,1.21-.4,0-.81,0-1.21,0,0-.4,0-.81,0-1.21.4,0,.81,0,1.21,0Z" class="cls-2"/>
    <path d="M46.12,791.89c0-.81,0-1.62,0-2.42h-1.21v-1.21h1.21v-1.21h1.21v2.42h1.21c0,.81,0,1.62,0,2.42.4,0,.81,0,1.21,0v-2.42h2.42v-1.21c-1.21,0-2.42,0-3.64,0v-1.21h3.64v1.21c.4,0,.81,0,1.21,0,0-.12-.06-1.21,0-1.21h1.21v1.21c-.4,0-.81,0-1.21,0v1.21h1.21v1.21h1.21v1.21h2.42v1.21c-1.21,0-2.42,0-3.64,0,0-.4,0-.81,0-1.21-.81,0-1.62,0-2.42,0,0-.4,0-.81,0-1.21h-1.21v1.21c.4,0,.81,0,1.21,0,0,.4,0,.81,0,1.21-.4,0-.81,0-1.21,0v1.21c.4,0,.81,0,1.21,0,0,.4,0,.81,0,1.21-.4,0-.81,0-1.21,0v1.21h1.21c0-.4,0-.81,0-1.21.81,0,1.62,0,2.42,0,0,.4,0,.81,0,1.21h-1.21v2.42c.4,0,.81,0,1.21,0,0,.4,0,.81,0,1.21.4,0,.81,0,1.21,0,0,.4,0,.81,0,1.21h1.21v1.21h1.21v1.21h-2.42v-1.21c-.4,0-.81,0-1.21,0,0-.12.06-1.21,0-1.21h-1.21v1.21c-.81,0-1.62,0-2.42,0v-1.21h1.21v-1.21h-1.21c0,.4,0,.81,0,1.21h-1.21v-1.21c-.4,0-.81,0-1.21,0,0-.4,0-.81,0-1.21h3.64v-1.21h-2.42v-2.42h-1.21v1.21h-1.21v3.64c.4,0,.81,0,1.21,0,0,.81,0,1.62,0,2.42h-3.64c0-.4,0-.81,0-1.21h1.21v-2.42h-1.21c0-.81,0-1.62,0-2.42h-1.21v-1.21h3.64v-2.42h1.21c0,.4,0,.81,0,1.21h1.21v-1.21c-.4,0-.81,0-1.21,0,0-.4,0-.81,0-1.21-.81,0-1.62,0-2.42,0,0,.4,0,.81,0,1.21h-2.42v-2.42h1.21v1.21c.4,0,.81,0,1.21,0Z" class="cls-2"/>
    <path d="M52.18,777.35v8.48h-8.48v-8.48h8.48ZM50.97,778.56h-6.06v6.06h6.06v-6.06Z" class="cls-2"/>
    <path d="M78.84,777.35v8.48h-8.48v-8.48h8.48ZM77.63,778.56h-6.06v6.06h6.06v-6.06Z" class="cls-2"/>
    <path d="M52.18,804.01v8.48h-8.48v-8.48h8.48ZM50.97,805.22h-6.06v6.06h6.06v-6.06Z" class="cls-2"/>
    <path d="M57.03,779.77v1.21c-.4,0-.81,0-1.21,0,0,.4,0,.81,0,1.21-.4,0-.81,0-1.21,0,0,.4,0,.81,0,1.21h-1.21v-1.21c.4,0,.81,0,1.21,0,0-.4,0-.81,0-1.21.4,0,.81,0,1.21,0,0-.4,0-.81,0-1.21.4,0,.81,0,1.21,0Z" class="cls-2"/>
    <path d="M55.82,779.77c-.81,0-1.62,0-2.42,0v-1.21h1.21v-1.21h3.64v2.42c-.4,0-.81,0-1.21,0,0-.4,0-.81,0-1.21h-1.21c0,.4,0,.81,0,1.21Z" class="cls-2"/>
    <rect height="2.42" width="1.21" y="794.31" x="77.63" class="cls-2"/>
    <rect height="1.21" width="1.21" y="784.62" x="53.4" class="cls-2"/>
    <rect height="1.21" width="1.21" y="784.62" x="63.09" class="cls-2"/>
    <rect height="1.21" width="1.21" y="787.04" x="72.78" class="cls-2"/>
    <rect height="1.21" width="1.21" y="804.01" x="70.36" class="cls-2"/>
    <rect height="3.64" width="3.64" y="779.77" x="46.12" class="cls-2"/>
    <rect height="3.64" width="3.64" y="779.77" x="72.78" class="cls-2"/>
    <rect height="3.64" width="3.64" y="806.43" x="46.12" class="cls-2"/>
  </g>
</svg>